PathFileType	4	(X/Y/Z)	33_1_16_p1_0-261.trc
DataRate	CameraRate	NumFrames	NumMarkers	Units	OrigDataRate	OrigDataStartFrame	OrigNumFrames
60.0	60.0	6	27	m	60.0	65	262
Frame#	Time	RHip			RKnee			RAnkle			RBigToe			RSmallToe			RHeel			LHip			LKnee			LAnkle			LBigToe			LSmallToe			LHeel			Neck			Head			Nose			RShoulder			RElbow			RWrist			RThumb			RIndex			RPinky			LShoulder			LElbow			LWrist			LThumb			LIndex			LPinky			
		X1	Y1	Z1	X2	Y2	Z2	X3	Y3	Z3	X4	Y4	Z4	X5	Y5	Z5	X6	Y6	Z6	X7	Y7	Z7	X8	Y8	Z8	X9	Y9	Z9	X10	Y10	Z10	X11	Y11	Z11	X12	Y12	Z12	X13	Y13	Z13	X14	Y14	Z14	X15	Y15	Z15	X16	Y16	Z16	X17	Y17	Z17	X18	Y18	Z18	X19	Y19	Z19	X20	Y20	Z20	X21	Y21	Z21	X22	Y22	Z22	X23	Y23	Z23	X24	Y24	Z24	X25	Y25	Z25	X26	Y26	Z26	X27	Y27	Z27	
65	1.0833333333333333	0.2882101345964648	0.28029163278159036	0.18448518275871534	0.25575763314081673	0.48973115361625186	0.5895276272472332	0.24385966552430288	0.7244334769014085	0.915344150983519	0.24310605236700328	0.5698051377670678	0.9960961797320286	0.3046393243469447	0.6209997461515605	0.9926881617853326	0.212596703804895	0.820930382607687	0.964639621424142	0.06396923870070412	0.2894703995381311	0.17781337736902839	0.08110526350106297	0.5369539823600921	0.5703205633658661	0.08745675127982616	0.7723696130551111	0.9391801896998652	0.10420939482749234	0.5640124847298308	0.9990237756531813	0.043451825699517665	0.6503033066174061	1.0008451916601813	0.09349742956215583	0.8402603810229797	0.9711805127952183	0.21180495749366282	-0.0020117858072141405	-0.34980406408618125	0.2186043540472348	-0.16016109398970513	-0.5439642323386187	0.22410335142898297	-0.15746833456074585	-0.39721122352416416	0.3567939260318469	0.0851136035891711	-0.26662340396479284	0.396967555483663	0.1430277759054215	0.003557190746453492	0.2935459107561624	0.12225219791755258	0.24359856306277558	0.18222182500373585	0.11928447752675722	0.327903218295355	0.17439856114971913	0.13977384632168818	0.34608201663722693	0.1947390043038991	0.2064919687952919	0.3385344311763043	0.039480372546290415	0.041151410718499565	-0.27470552502670964	0.011223807838869197	0.11908950607722858	-0.002012389982009177	0.11139991893189022	0.1316518084160387	0.20996601752641333	0.19037863776088793	0.10143380822763247	0.30317380578925096	0.19269868655960895	0.11882618296094055	0.34199785535140603	0.1775873765789749	0.14219040296496524	0.3384799623687284
66	1.1	0.28917967328308175	0.264251637406315	0.187833901711541	0.2565745948737848	0.4877293119020881	0.586240738588672	0.23829755521953586	0.7420618772195464	0.9167010963751419	0.24318356935206345	0.5703345403126526	0.995945058290291	0.3046971726678609	0.6213847377650065	0.9926103801369266	0.2126157961460881	0.8210071097826412	0.9644085526337506	0.07204220050214726	0.29208316609548285	0.18503880858083274	0.08141400035112273	0.5383613196891005	0.5744683653859162	0.08863353247427126	0.7699654319207497	0.9352676917746451	0.10418703454797013	0.5638654831277604	0.9989456549526592	0.04342684598674208	0.6501508092837908	1.0007803667955126	0.09340788954246583	0.8395226901263075	0.9711246340398526	0.2118228407005717	-0.002033671878258495	-0.3497367885097452	0.21856555177000483	-0.1599073393818633	-0.5440517981095359	0.22408064158089178	-0.15739723752047605	-0.39723661624571727	0.35683671546631657	0.0850823551067531	-0.2666270051921659	0.4037974250200973	0.14130186497430391	0.003844030571012069	0.2937592874893828	0.12239367586791901	0.24386437546164783	0.18590139937051844	0.10839590056686992	0.33414304298749986	0.18301898316643667	0.13462700107961656	0.3605992177502628	0.19727169564627556	0.21939077708175694	0.3376551749241055	0.039495373773253156	0.04108030849278435	-0.2747214830778672	0.011178929916830543	0.11911346516575232	-0.001932381942834194	0.113806366972869	0.12320114736555944	0.21537071027194804	0.19034193079208359	0.1007484018701404	0.30359381857997225	0.19272856757448456	0.12009881970701868	0.3497316214736579	0.17647594697514046	0.1471222821533478	0.34610000005711317
67	1.1166666666666667	0.2936601211021985	0.24699312626680342	0.18682519111767215	0.25879611039013073	0.5013173751123672	0.5855710176601076	0.23831587926419237	0.742156587232721	0.9166705607323874	0.2437862556241864	0.5725545414451981	1.0007820023799443	0.3071222685263346	0.6353153469406873	0.9943015633179806	0.21682213572615958	0.8185943042539159	0.9593170182077412	0.0698211192538377	0.27494331550687423	0.18036761267425036	0.0815296454362118	0.5386173669055351	0.5745411251681811	0.08860577817609226	0.7699428757919767	0.9352402295788591	0.09958342241417713	0.577719135137257	0.9967488554399158	0.04430449102826326	0.6479309969900685	0.9971715725229586	0.09318418012066995	0.8366862527072539	0.9706967921207544	0.21182776914628765	-0.0020199757387503237	-0.34980477014073624	0.21874943006252554	-0.15907638487628475	-0.5413061800268705	0.22416394849760696	-0.15743092125827052	-0.3972593851221901	0.35687280446546743	0.08515153484658533	-0.2666086681575531	0.40424601726595333	0.14345113641582852	0.007139812720889224	0.303056480291846	0.11336663295406384	0.24900919138301583	0.18614145402881616	0.11646856123326976	0.3474061588426629	0.18244495185380255	0.1367837433450504	0.36595821252242994	0.19528239560893573	0.2103646159522773	0.342939381198361	0.03948477287928975	0.0410141405082917	-0.274713273154876	0.0110895950119506	0.11897443462626328	-0.0019240840245264691	0.1090712108534299	0.1225559577847947	0.21890525415498488	0.18974829390560474	0.10301926631655285	0.306827998524036	0.18652738872140875	0.13431186909351536	0.35124868463904996	0.17181199506433625	0.1620030983943662	0.3526212507143985
68	1.1333333333333333	0.2936505139387159	0.24702506394323234	0.18664235782373279	0.25875008571967084	0.5014538428209568	0.5857149495832125	0.23827668280921027	0.7419509820135912	0.9165472723500157	0.2430846823771467	0.5703366645760773	0.9962054104913461	0.30003453304478633	0.6194668093460793	0.9927837791411962	0.21692611967904288	0.8182629762419553	0.9589868605648603	0.07002436568561768	0.27635169896706174	0.18446892319120178	0.08179301410143196	0.5405012839747926	0.574479659592866	0.08854354993160873	0.7700849657161509	0.9354272386542599	0.10540585532463605	0.5621515654786451	0.9950812309239928	0.04337735470627632	0.6503244861399569	1.0008945620906007	0.09302415640865892	0.8378160011233012	0.9710268876128068	0.21194087703089415	-0.002944648304732047	-0.3527038054207483	0.21876454230322367	-0.15951525746458242	-0.5442473460487313	0.22415264809178076	-0.15747719077713856	-0.39724094474193694	0.35689453778520747	0.08524972492923934	-0.2666352327990266	0.40424179537679117	0.14345616079403095	0.007107136117489996	0.31972724175125117	0.10153971096575386	0.253884670250161	0.20528485119053763	0.08698997015106004	0.3621720589981343	0.2015958024116692	0.09335222817004972	0.37545289748547545	0.19777285828738944	0.22410952318148464	0.34352221232273383	0.039453309053893826	0.04100723887797202	-0.2746215680873416	0.00944194434136482	0.10704771901834242	0.00128262483723884	0.10410727343886111	0.13950287187866292	0.22371536786811538	0.1972251230954378	0.07701014273088039	0.3137220302489305	0.18616599354383787	0.1270419868183769	0.366150535327661	0.16965098236521456	0.16776882003548987	0.3627982411260168
69	1.15	0.28904700289629714	0.2652488050342291	0.19134250976551542	0.25949617082736315	0.5045392195187149	0.5857845298475126	0.24387728415124796	0.7244229180264925	0.9152007168474477	0.24309866019920626	0.5700543559247647	0.9963907095860556	0.3072312500334952	0.6356573154256924	0.9937681643461942	0.2125572870613585	0.8208038503813376	0.9641762770750663	0.06992027429111623	0.27683452736771996	0.1847441926069514	0.07602700600009221	0.5601731093169294	0.5782993001847347	0.0885503891175295	0.7701559367218612	0.9353829334652326	0.09840139605866409	0.5803392937239445	1.0009640542965716	0.04315825852907908	0.6506714119788043	1.0009963241142958	0.0931260114135507	0.8376954233164408	0.9708996703356075	0.21195552943677057	-0.0030182787741175033	-0.3526996761637797	0.2187319766600546	-0.15944616878148374	-0.5442881146932269	0.22417169281686167	-0.15757978479344517	-0.39720677369187657	0.35692517865046364	0.08528273637460328	-0.2666584170679547	0.4038746771444603	0.145122582764879	0.010234424252018677	0.32676091997587964	0.1151858045116129	0.25203431706134144	0.20067907834342508	0.10443674921189179	0.37062562410202105	0.20805965457106382	0.10789046837106857	0.3774416587531256	0.21474660858793096	0.19525009085141948	0.3623765023519599	0.039451333569562354	0.040928694623053694	-0.27467473432411876	0.00740550642021558	0.09465404616078515	0.0006381126856107715	0.09690650956509039	0.14298155873214805	0.22680368818700739	0.18974987551630726	0.09845930312790384	0.31825472869335336	0.17981395632335626	0.12863857788903899	0.3698604906639036	0.15996394218015694	0.17949279438629423	0.3647930648057543
70	1.1666666666666667	0.2823151076008326	0.2520382754269925	0.19410319061578696	0.2597754164458125	0.5050578768103824	0.5899692546541289	0.23828278993019322	0.7420524785413436	0.91647390024249	0.24384011689073853	0.5732102338911412	1.0003346126817036	0.3072417812992611	0.6356437071982523	0.9937982685009771	0.2125466975390894	0.820893402333431	0.9641724338017021	0.06825321996303348	0.2674436072486435	0.1947809572871409	0.08028108189292446	0.5643681177444309	0.5822286260873537	0.08841270689257494	0.7704402018616479	0.9355049156251308	0.09836746540787798	0.5801258179591734	1.0009453456113597	0.04307689839914558	0.6505480681340488	1.0010232809920456	0.09302831380956081	0.838269371846853	0.9710861371568711	0.21191512524500164	-0.003035500300065737	-0.3527432755921954	0.21881618006406847	-0.15953132240064305	-0.5443029852242429	0.228804520118908	-0.16847386238603776	-0.3956133233648943	0.35687591061568547	0.08534753286019924	-0.26668861536900745	0.3995740530966914	0.1580209235854314	0.007218647957117608	0.33640699290264553	0.1391748325955985	0.24796560437802587	0.21143205626486453	0.08099196055630858	0.37438193845969064	0.21790733175595497	0.09748954809579041	0.3832830434065011	0.24264363814056822	0.16135484803396002	0.3718503762995504	0.03942924225732069	0.04092616274125449	-0.2746966928026173	0.007275308536322419	0.09480371240764911	0.0005404488404784236	0.09053476665460458	0.13192648061694648	0.23648466710973942	0.1795110711216317	0.11184674413844377	0.3250972478773401	0.17529128457427523	0.1548220253461991	0.3707788454406789	0.12074847473708476	0.22414304261734563	0.3643751953247546
